<?xml version="1.0" standalone="no"?>
<svg xmlns="http://www.w3.org/2000/svg" width="500" height="500"><defs><clipPath id="clip-path-dot-color"><path d="M 19 145v 14h 7a 7 7, 0, 0, 0, 0 -14" transform="rotate(180,26,152)"/><path d="M 19 173v 14h 7a 7 7, 0, 0, 0, 0 -14" transform="rotate(180,26,180)"/><path d="M 19 257v 14h 14v -7a 7 7, 0, 0, 0, -7 -7" transform="rotate(-90,26,264)"/><path d="M 19 271v 14h 7a 7 7, 0, 0, 0, 0 -14" transform="rotate(90,26,278)"/><circle cx="26" cy="306" r="7" transform="rotate(0,26,306)"/><path d="M 19 327v 14h 7a 7 7, 0, 0, 0, 0 -14" transform="rotate(-90,26,334)"/><path d="M 19 341v 14h 7a 7 7, 0, 0, 0, 0 -14" transform="rotate(90,26,348)"/><path d="M 33 145v 14h 7a 7 7, 0, 0, 0, 0 -14" transform="rotate(0,40,152)"/><path d="M 33 173v 14h 14v -7a 7 7, 0, 0, 0, -7 -7" transform="rotate(0,40,180)"/><path d="M 33 187v 14h 14v -7a 7 7, 0, 0, 0, -7 -7" transform="rotate(180,40,194)"/><path d="M 33 215v 14h 7a 7 7, 0, 0, 0, 0 -14" transform="rotate(-90,40,222)"/><rect x="33" y="229" width="14" height="14" transform="rotate(0,40,236)"/><rect x="33" y="243" width="14" height="14" transform="rotate(0,40,250)"/><path d="M 33 257v 14h 14v -7a 7 7, 0, 0, 0, -7 -7" transform="rotate(90,40,264)"/><circle cx="40" cy="292" r="7" transform="rotate(0,40,292)"/><path d="M 33 313v 14h 7a 7 7, 0, 0, 0, 0 -14" transform="rotate(180,40,320)"/><circle cx="40" cy="362" r="7" transform="rotate(0,40,362)"/><circle cx="54" cy="138" r="7" transform="rotate(0,54,138)"/><path d="M 47 187v 14h 14v -7a 7 7, 0, 0, 0, -7 -7" transform="rotate(0,54,194)"/><path d="M 47 201v 14h 7a 7 7, 0, 0, 0, 0 -14" transform="rotate(90,54,208)"/><path d="M 47 229v 14h 14v -7a 7 7, 0, 0, 0, -7 -7" transform="rotate(0,54,236)"/><rect x="47" y="243" width="14" height="14" transform="rotate(0,54,250)"/><path d="M 47 299v 14h 14v -7a 7 7, 0, 0, 0, -7 -7" transform="rotate(-90,54,306)"/><rect x="47" y="313" width="14" height="14" transform="rotate(0,54,320)"/><rect x="47" y="327" width="14" height="14" transform="rotate(0,54,334)"/><path d="M 47 341v 14h 7a 7 7, 0, 0, 0, 0 -14" transform="rotate(90,54,348)"/><path d="M 61 215v 14h 7a 7 7, 0, 0, 0, 0 -14" transform="rotate(180,68,222)"/><rect x="61" y="243" width="14" height="14" transform="rotate(0,68,250)"/><rect x="61" y="257" width="14" height="14" transform="rotate(0,68,264)"/><path d="M 61 271v 14h 14v -7a 7 7, 0, 0, 0, -7 -7" transform="rotate(180,68,278)"/><rect x="61" y="299" width="14" height="14" transform="rotate(0,68,306)"/><rect x="61" y="327" width="14" height="14" transform="rotate(0,68,334)"/><path d="M 61 355v 14h 7a 7 7, 0, 0, 0, 0 -14" transform="rotate(180,68,362)"/><path d="M 75 131v 14h 14v -7a 7 7, 0, 0, 0, -7 -7" transform="rotate(-90,82,138)"/><path d="M 75 145v 14h 14v -7a 7 7, 0, 0, 0, -7 -7" transform="rotate(180,82,152)"/><path d="M 75 187v 14h 7a 7 7, 0, 0, 0, 0 -14" transform="rotate(180,82,194)"/><rect x="75" y="215" width="14" height="14" transform="rotate(0,82,222)"/><rect x="75" y="229" width="14" height="14" transform="rotate(0,82,236)"/><rect x="75" y="243" width="14" height="14" transform="rotate(0,82,250)"/><rect x="75" y="257" width="14" height="14" transform="rotate(0,82,264)"/><rect x="75" y="271" width="14" height="14" transform="rotate(0,82,278)"/><rect x="75" y="285" width="14" height="14" transform="rotate(0,82,292)"/><path d="M 75 299v 14h 14v -7a 7 7, 0, 0, 0, -7 -7" transform="rotate(90,82,306)"/><rect x="75" y="327" width="14" height="14" transform="rotate(0,82,334)"/><rect x="75" y="341" width="14" height="14" transform="rotate(0,82,348)"/><rect x="75" y="355" width="14" height="14" transform="rotate(0,82,362)"/><rect x="89" y="131" width="14" height="14" transform="rotate(0,96,138)"/><rect x="89" y="145" width="14" height="14" transform="rotate(0,96,152)"/><rect x="89" y="159" width="14" height="14" transform="rotate(0,96,166)"/><rect x="89" y="173" width="14" height="14" transform="rotate(0,96,180)"/><rect x="89" y="187" width="14" height="14" transform="rotate(0,96,194)"/><rect x="89" y="215" width="14" height="14" transform="rotate(0,96,222)"/><rect x="89" y="243" width="14" height="14" transform="rotate(0,96,250)"/><path d="M 89 257v 14h 14v -7a 7 7, 0, 0, 0, -7 -7" transform="rotate(90,96,264)"/><path d="M 89 285v 14h 7a 7 7, 0, 0, 0, 0 -14" transform="rotate(0,96,292)"/><rect x="89" y="327" width="14" height="14" transform="rotate(0,96,334)"/><rect x="89" y="355" width="14" height="14" transform="rotate(0,96,362)"/><path d="M 103 131v 14h 7a 7 7, 0, 0, 0, 0 -14" transform="rotate(0,110,138)"/><path d="M 103 159v 14h 7a 7 7, 0, 0, 0, 0 -14" transform="rotate(0,110,166)"/><rect x="103" y="187" width="14" height="14" transform="rotate(0,110,194)"/><path d="M 103 215v 14h 7a 7 7, 0, 0, 0, 0 -14" transform="rotate(0,110,222)"/><path d="M 103 243v 14h 7a 7 7, 0, 0, 0, 0 -14" transform="rotate(0,110,250)"/><circle cx="110" cy="278" r="7" transform="rotate(0,110,278)"/><circle cx="110" cy="306" r="7" transform="rotate(0,110,306)"/><rect x="103" y="327" width="14" height="14" transform="rotate(0,110,334)"/><path d="M 103 355v 14h 7a 7 7, 0, 0, 0, 0 -14" transform="rotate(0,110,362)"/><circle cx="124" cy="152" r="7" transform="rotate(0,124,152)"/><path d="M 117 173v 14h 7a 7 7, 0, 0, 0, 0 -14" transform="rotate(-90,124,180)"/><rect x="117" y="187" width="14" height="14" transform="rotate(0,124,194)"/><path d="M 117 201v 14h 7a 7 7, 0, 0, 0, 0 -14" transform="rotate(90,124,208)"/><path d="M 117 257v 14h 7a 7 7, 0, 0, 0, 0 -14" transform="rotate(180,124,264)"/><path d="M 117 313v 14h 14v -7a 7 7, 0, 0, 0, -7 -7" transform="rotate(-90,124,320)"/><rect x="117" y="327" width="14" height="14" transform="rotate(0,124,334)"/><path d="M 117 341v 14h 7a 7 7, 0, 0, 0, 0 -14" transform="rotate(90,124,348)"/><circle cx="138" cy="40" r="7" transform="rotate(0,138,40)"/><path d="M 131 75v 14h 7a 7 7, 0, 0, 0, 0 -14" transform="rotate(180,138,82)"/><circle cx="138" cy="110" r="7" transform="rotate(0,138,110)"/><circle cx="138" cy="138" r="7" transform="rotate(0,138,138)"/><circle cx="138" cy="166" r="7" transform="rotate(0,138,166)"/><circle cx="138" cy="236" r="7" transform="rotate(0,138,236)"/><path d="M 131 257v 14h 7a 7 7, 0, 0, 0, 0 -14" transform="rotate(0,138,264)"/><path d="M 131 285v 14h 7a 7 7, 0, 0, 0, 0 -14" transform="rotate(-90,138,292)"/><rect x="131" y="299" width="14" height="14" transform="rotate(0,138,306)"/><rect x="131" y="313" width="14" height="14" transform="rotate(0,138,320)"/><rect x="131" y="327" width="14" height="14" transform="rotate(0,138,334)"/><circle cx="138" cy="376" r="7" transform="rotate(0,138,376)"/><path d="M 131 397v 14h 14v -7a 7 7, 0, 0, 0, -7 -7" transform="rotate(-90,138,404)"/><path d="M 131 411v 14h 7a 7 7, 0, 0, 0, 0 -14" transform="rotate(90,138,418)"/><path d="M 131 439v 14h 7a 7 7, 0, 0, 0, 0 -14" transform="rotate(180,138,446)"/><rect x="145" y="75" width="14" height="14" transform="rotate(0,152,82)"/><path d="M 145 89v 14h 14v -7a 7 7, 0, 0, 0, -7 -7" transform="rotate(180,152,96)"/><circle cx="152" cy="124" r="7" transform="rotate(0,152,124)"/><path d="M 145 201v 14h 7a 7 7, 0, 0, 0, 0 -14" transform="rotate(-90,152,208)"/><path d="M 145 215v 14h 7a 7 7, 0, 0, 0, 0 -14" transform="rotate(90,152,222)"/><circle cx="152" cy="278" r="7" transform="rotate(0,152,278)"/><path d="M 145 327v 14h 14v -7a 7 7, 0, 0, 0, -7 -7" transform="rotate(0,152,334)"/><path d="M 145 341v 14h 14v -7a 7 7, 0, 0, 0, -7 -7" transform="rotate(180,152,348)"/><path d="M 145 397v 14h 7a 7 7, 0, 0, 0, 0 -14" transform="rotate(0,152,404)"/><path d="M 145 425v 14h 14v -7a 7 7, 0, 0, 0, -7 -7" transform="rotate(-90,152,432)"/><rect x="145" y="439" width="14" height="14" transform="rotate(0,152,446)"/><path d="M 145 453v 14h 7a 7 7, 0, 0, 0, 0 -14" transform="rotate(90,152,460)"/><circle cx="166" cy="40" r="7" transform="rotate(0,166,40)"/><path d="M 159 61v 14h 14v -7a 7 7, 0, 0, 0, -7 -7" transform="rotate(-90,166,68)"/><rect x="159" y="75" width="14" height="14" transform="rotate(0,166,82)"/><rect x="159" y="89" width="14" height="14" transform="rotate(0,166,96)"/><path d="M 159 103v 14h 7a 7 7, 0, 0, 0, 0 -14" transform="rotate(90,166,110)"/><path d="M 159 145v 14h 7a 7 7, 0, 0, 0, 0 -14" transform="rotate(-90,166,152)"/><path d="M 159 159v 14h 7a 7 7, 0, 0, 0, 0 -14" transform="rotate(90,166,166)"/><path d="M 159 257v 14h 7a 7 7, 0, 0, 0, 0 -14" transform="rotate(180,166,264)"/><path d="M 159 313v 14h 7a 7 7, 0, 0, 0, 0 -14" transform="rotate(180,166,320)"/><rect x="159" y="341" width="14" height="14" transform="rotate(0,166,348)"/><rect x="159" y="355" width="14" height="14" transform="rotate(0,166,362)"/><rect x="159" y="369" width="14" height="14" transform="rotate(0,166,376)"/><path d="M 159 383v 14h 14v -7a 7 7, 0, 0, 0, -7 -7" transform="rotate(180,166,390)"/><path d="M 159 425v 14h 7a 7 7, 0, 0, 0, 0 -14" transform="rotate(0,166,432)"/><path d="M 173 19v 14h 7a 7 7, 0, 0, 0, 0 -14" transform="rotate(180,180,26)"/><path d="M 173 47v 14h 7a 7 7, 0, 0, 0, 0 -14" transform="rotate(-90,180,54)"/><rect x="173" y="61" width="14" height="14" transform="rotate(0,180,68)"/><path d="M 173 75v 14h 14v -7a 7 7, 0, 0, 0, -7 -7" transform="rotate(90,180,82)"/><path d="M 173 131v 14h 7a 7 7, 0, 0, 0, 0 -14" transform="rotate(180,180,138)"/><path d="M 173 201v 14h 14v -7a 7 7, 0, 0, 0, -7 -7" transform="rotate(-90,180,208)"/><path d="M 173 215v 14h 14v -7a 7 7, 0, 0, 0, -7 -7" transform="rotate(180,180,222)"/><path d="M 173 257v 14h 14v -7a 7 7, 0, 0, 0, -7 -7" transform="rotate(0,180,264)"/><rect x="173" y="271" width="14" height="14" transform="rotate(0,180,278)"/><rect x="173" y="285" width="14" height="14" transform="rotate(0,180,292)"/><rect x="173" y="299" width="14" height="14" transform="rotate(0,180,306)"/><path d="M 173 313v 14h 14v -7a 7 7, 0, 0, 0, -7 -7" transform="rotate(90,180,320)"/><path d="M 173 341v 14h 14v -7a 7 7, 0, 0, 0, -7 -7" transform="rotate(0,180,348)"/><rect x="173" y="355" width="14" height="14" transform="rotate(0,180,362)"/><rect x="173" y="369" width="14" height="14" transform="rotate(0,180,376)"/><rect x="173" y="383" width="14" height="14" transform="rotate(0,180,390)"/><path d="M 173 453v 14h 7a 7 7, 0, 0, 0, 0 -14" transform="rotate(-90,180,460)"/><path d="M 173 467v 14h 14v -7a 7 7, 0, 0, 0, -7 -7" transform="rotate(180,180,474)"/><rect x="187" y="19" width="14" height="14" transform="rotate(0,194,26)"/><path d="M 187 61v 14h 7a 7 7, 0, 0, 0, 0 -14" transform="rotate(0,194,68)"/><path d="M 187 89v 14h 7a 7 7, 0, 0, 0, 0 -14" transform="rotate(-90,194,96)"/><rect x="187" y="103" width="14" height="14" transform="rotate(0,194,110)"/><rect x="187" y="117" width="14" height="14" transform="rotate(0,194,124)"/><path d="M 187 131v 14h 14v -7a 7 7, 0, 0, 0, -7 -7" transform="rotate(90,194,138)"/><path d="M 187 187v 14h 14v -7a 7 7, 0, 0, 0, -7 -7" transform="rotate(-90,194,194)"/><rect x="187" y="201" width="14" height="14" transform="rotate(0,194,208)"/><path d="M 187 215v 14h 14v -7a 7 7, 0, 0, 0, -7 -7" transform="rotate(90,194,222)"/><path d="M 187 243v 14h 7a 7 7, 0, 0, 0, 0 -14" transform="rotate(180,194,250)"/><path d="M 187 271v 14h 14v -7a 7 7, 0, 0, 0, -7 -7" transform="rotate(0,194,278)"/><rect x="187" y="285" width="14" height="14" transform="rotate(0,194,292)"/><path d="M 187 299v 14h 14v -7a 7 7, 0, 0, 0, -7 -7" transform="rotate(90,194,306)"/><path d="M 187 383v 14h 7a 7 7, 0, 0, 0, 0 -14" transform="rotate(0,194,390)"/><path d="M 187 411v 14h 7a 7 7, 0, 0, 0, 0 -14" transform="rotate(-90,194,418)"/><path d="M 187 425v 14h 14v -7a 7 7, 0, 0, 0, -7 -7" transform="rotate(180,194,432)"/><path d="M 187 467v 14h 7a 7 7, 0, 0, 0, 0 -14" transform="rotate(0,194,474)"/><rect x="201" y="19" width="14" height="14" transform="rotate(0,208,26)"/><path d="M 201 47v 14h 7a 7 7, 0, 0, 0, 0 -14" transform="rotate(180,208,54)"/><path d="M 201 117v 14h 7a 7 7, 0, 0, 0, 0 -14" transform="rotate(0,208,124)"/><path d="M 201 159v 14h 7a 7 7, 0, 0, 0, 0 -14" transform="rotate(-90,208,166)"/><rect x="201" y="173" width="14" height="14" transform="rotate(0,208,180)"/><rect x="201" y="187" width="14" height="14" transform="rotate(0,208,194)"/><rect x="201" y="201" width="14" height="14" transform="rotate(0,208,208)"/><path d="M 201 243v 14h 14v -7a 7 7, 0, 0, 0, -7 -7" transform="rotate(0,208,250)"/><path d="M 201 257v 14h 14v -7a 7 7, 0, 0, 0, -7 -7" transform="rotate(180,208,264)"/><rect x="201" y="285" width="14" height="14" transform="rotate(0,208,292)"/><path d="M 201 341v 14h 14v -7a 7 7, 0, 0, 0, -7 -7" transform="rotate(-90,208,348)"/><rect x="201" y="355" width="14" height="14" transform="rotate(0,208,362)"/><path d="M 201 369v 14h 14v -7a 7 7, 0, 0, 0, -7 -7" transform="rotate(180,208,376)"/><path d="M 201 425v 14h 7a 7 7, 0, 0, 0, 0 -14" transform="rotate(0,208,432)"/><rect x="215" y="19" width="14" height="14" transform="rotate(0,222,26)"/><rect x="215" y="33" width="14" height="14" transform="rotate(0,222,40)"/><rect x="215" y="47" width="14" height="14" transform="rotate(0,222,54)"/><rect x="215" y="61" width="14" height="14" transform="rotate(0,222,68)"/><path d="M 215 75v 14h 14v -7a 7 7, 0, 0, 0, -7 -7" transform="rotate(180,222,82)"/><circle cx="222" cy="110" r="7" transform="rotate(0,222,110)"/><circle cx="222" cy="138" r="7" transform="rotate(0,222,138)"/><rect x="215" y="173" width="14" height="14" transform="rotate(0,222,180)"/><rect x="215" y="201" width="14" height="14" transform="rotate(0,222,208)"/><path d="M 215 229v 14h 7a 7 7, 0, 0, 0, 0 -14" transform="rotate(180,222,236)"/><path d="M 215 257v 14h 14v -7a 7 7, 0, 0, 0, -7 -7" transform="rotate(0,222,264)"/><rect x="215" y="271" width="14" height="14" transform="rotate(0,222,278)"/><rect x="215" y="285" width="14" height="14" transform="rotate(0,222,292)"/><path d="M 215 327v 14h 14v -7a 7 7, 0, 0, 0, -7 -7" transform="rotate(-90,222,334)"/><path d="M 215 341v 14h 14v -7a 7 7, 0, 0, 0, -7 -7" transform="rotate(90,222,348)"/><rect x="215" y="369" width="14" height="14" transform="rotate(0,222,376)"/><circle cx="222" cy="418" r="7" transform="rotate(0,222,418)"/><path d="M 215 439v 14h 7a 7 7, 0, 0, 0, 0 -14" transform="rotate(-90,222,446)"/><path d="M 215 453v 14h 7a 7 7, 0, 0, 0, 0 -14" transform="rotate(90,222,460)"/><rect x="229" y="19" width="14" height="14" transform="rotate(0,236,26)"/><path d="M 229 75v 14h 7a 7 7, 0, 0, 0, 0 -14" transform="rotate(0,236,82)"/><rect x="229" y="173" width="14" height="14" transform="rotate(0,236,180)"/><rect x="229" y="187" width="14" height="14" transform="rotate(0,236,194)"/><rect x="229" y="201" width="14" height="14" transform="rotate(0,236,208)"/><rect x="229" y="215" width="14" height="14" transform="rotate(0,236,222)"/><rect x="229" y="229" width="14" height="14" transform="rotate(0,236,236)"/><path d="M 229 243v 14h 14v -7a 7 7, 0, 0, 0, -7 -7" transform="rotate(180,236,250)"/><path d="M 229 271v 14h 14v -7a 7 7, 0, 0, 0, -7 -7" transform="rotate(0,236,278)"/><rect x="229" y="285" width="14" height="14" transform="rotate(0,236,292)"/><rect x="229" y="299" width="14" height="14" transform="rotate(0,236,306)"/><rect x="229" y="313" width="14" height="14" transform="rotate(0,236,320)"/><rect x="229" y="327" width="14" height="14" transform="rotate(0,236,334)"/><path d="M 229 369v 14h 14v -7a 7 7, 0, 0, 0, -7 -7" transform="rotate(0,236,376)"/><path d="M 229 383v 14h 14v -7a 7 7, 0, 0, 0, -7 -7" transform="rotate(180,236,390)"/><path d="M 243 19v 14h 14v -7a 7 7, 0, 0, 0, -7 -7" transform="rotate(0,250,26)"/><path d="M 243 33v 14h 14v -7a 7 7, 0, 0, 0, -7 -7" transform="rotate(180,250,40)"/><path d="M 243 61v 14h 7a 7 7, 0, 0, 0, 0 -14" transform="rotate(180,250,68)"/><path d="M 243 89v 14h 14v -7a 7 7, 0, 0, 0, -7 -7" transform="rotate(-90,250,96)"/><path d="M 243 103v 14h 7a 7 7, 0, 0, 0, 0 -14" transform="rotate(90,250,110)"/><circle cx="250" cy="138" r="7" transform="rotate(0,250,138)"/><rect x="243" y="173" width="14" height="14" transform="rotate(0,250,180)"/><path d="M 243 229v 14h 14v -7a 7 7, 0, 0, 0, -7 -7" transform="rotate(0,250,236)"/><rect x="243" y="243" width="14" height="14" transform="rotate(0,250,250)"/><path d="M 243 257v 14h 14v -7a 7 7, 0, 0, 0, -7 -7" transform="rotate(180,250,264)"/><path d="M 243 299v 14h 14v -7a 7 7, 0, 0, 0, -7 -7" transform="rotate(0,250,306)"/><rect x="243" y="313" width="14" height="14" transform="rotate(0,250,320)"/><path d="M 243 327v 14h 14v -7a 7 7, 0, 0, 0, -7 -7" transform="rotate(90,250,334)"/><circle cx="250" cy="362" r="7" transform="rotate(0,250,362)"/><path d="M 243 383v 14h 7a 7 7, 0, 0, 0, 0 -14" transform="rotate(0,250,390)"/><path d="M 243 411v 14h 7a 7 7, 0, 0, 0, 0 -14" transform="rotate(-90,250,418)"/><path d="M 243 425v 14h 14v -7a 7 7, 0, 0, 0, -7 -7" transform="rotate(180,250,432)"/><path d="M 243 453v 14h 7a 7 7, 0, 0, 0, 0 -14" transform="rotate(180,250,460)"/><rect x="257" y="33" width="14" height="14" transform="rotate(0,264,40)"/><rect x="257" y="61" width="14" height="14" transform="rotate(0,264,68)"/><rect x="257" y="89" width="14" height="14" transform="rotate(0,264,96)"/><circle cx="264" cy="124" r="7" transform="rotate(0,264,124)"/><path d="M 257 145v 14h 14v -7a 7 7, 0, 0, 0, -7 -7" transform="rotate(-90,264,152)"/><rect x="257" y="159" width="14" height="14" transform="rotate(0,264,166)"/><rect x="257" y="173" width="14" height="14" transform="rotate(0,264,180)"/><circle cx="264" cy="208" r="7" transform="rotate(0,264,208)"/><rect x="257" y="257" width="14" height="14" transform="rotate(0,264,264)"/><path d="M 257 271v 14h 14v -7a 7 7, 0, 0, 0, -7 -7" transform="rotate(180,264,278)"/><path d="M 257 313v 14h 7a 7 7, 0, 0, 0, 0 -14" transform="rotate(0,264,320)"/><path d="M 257 341v 14h 7a 7 7, 0, 0, 0, 0 -14" transform="rotate(180,264,348)"/><rect x="257" y="425" width="14" height="14" transform="rotate(0,264,432)"/><rect x="257" y="439" width="14" height="14" transform="rotate(0,264,446)"/><rect x="257" y="453" width="14" height="14" transform="rotate(0,264,460)"/><path d="M 271 19v 14h 7a 7 7, 0, 0, 0, 0 -14" transform="rotate(-90,278,26)"/><rect x="271" y="33" width="14" height="14" transform="rotate(0,278,40)"/><rect x="271" y="47" width="14" height="14" transform="rotate(0,278,54)"/><path d="M 271 61v 14h 14v -7a 7 7, 0, 0, 0, -7 -7" transform="rotate(90,278,68)"/><rect x="271" y="89" width="14" height="14" transform="rotate(0,278,96)"/><path d="M 271 103v 14h 7a 7 7, 0, 0, 0, 0 -14" transform="rotate(90,278,110)"/><path d="M 271 131v 14h 7a 7 7, 0, 0, 0, 0 -14" transform="rotate(-90,278,138)"/><path d="M 271 145v 14h 14v -7a 7 7, 0, 0, 0, -7 -7" transform="rotate(90,278,152)"/><path d="M 271 173v 14h 7a 7 7, 0, 0, 0, 0 -14" transform="rotate(0,278,180)"/><circle cx="278" cy="236" r="7" transform="rotate(0,278,236)"/><rect x="271" y="257" width="14" height="14" transform="rotate(0,278,264)"/><path d="M 271 271v 14h 14v -7a 7 7, 0, 0, 0, -7 -7" transform="rotate(90,278,278)"/><circle cx="278" cy="306" r="7" transform="rotate(0,278,306)"/><path d="M 271 341v 14h 7a 7 7, 0, 0, 0, 0 -14" transform="rotate(0,278,348)"/><path d="M 271 383v 14h 7a 7 7, 0, 0, 0, 0 -14" transform="rotate(180,278,390)"/><path d="M 271 425v 14h 7a 7 7, 0, 0, 0, 0 -14" transform="rotate(0,278,432)"/><path d="M 271 453v 14h 7a 7 7, 0, 0, 0, 0 -14" transform="rotate(0,278,460)"/><path d="M 285 33v 14h 7a 7 7, 0, 0, 0, 0 -14" transform="rotate(0,292,40)"/><path d="M 285 75v 14h 7a 7 7, 0, 0, 0, 0 -14" transform="rotate(-90,292,82)"/><path d="M 285 89v 14h 14v -7a 7 7, 0, 0, 0, -7 -7" transform="rotate(90,292,96)"/><path d="M 285 159v 14h 7a 7 7, 0, 0, 0, 0 -14" transform="rotate(180,292,166)"/><path d="M 285 187v 14h 14v -7a 7 7, 0, 0, 0, -7 -7" transform="rotate(-90,292,194)"/><path d="M 285 201v 14h 14v -7a 7 7, 0, 0, 0, -7 -7" transform="rotate(180,292,208)"/><path d="M 285 243v 14h 7a 7 7, 0, 0, 0, 0 -14" transform="rotate(-90,292,250)"/><path d="M 285 257v 14h 14v -7a 7 7, 0, 0, 0, -7 -7" transform="rotate(90,292,264)"/><path d="M 285 327v 14h 7a 7 7, 0, 0, 0, 0 -14" transform="rotate(180,292,334)"/><circle cx="292" cy="362" r="7" transform="rotate(0,292,362)"/><rect x="285" y="383" width="14" height="14" transform="rotate(0,292,390)"/><path d="M 285 467v 14h 7a 7 7, 0, 0, 0, 0 -14" transform="rotate(180,292,474)"/><path d="M 299 19v 14h 7a 7 7, 0, 0, 0, 0 -14" transform="rotate(180,306,26)"/><circle cx="306" cy="54" r="7" transform="rotate(0,306,54)"/><circle cx="306" cy="110" r="7" transform="rotate(0,306,110)"/><path d="M 299 131v 14h 7a 7 7, 0, 0, 0, 0 -14" transform="rotate(-90,306,138)"/><rect x="299" y="145" width="14" height="14" transform="rotate(0,306,152)"/><rect x="299" y="159" width="14" height="14" transform="rotate(0,306,166)"/><rect x="299" y="173" width="14" height="14" transform="rotate(0,306,180)"/><rect x="299" y="187" width="14" height="14" transform="rotate(0,306,194)"/><path d="M 299 201v 14h 14v -7a 7 7, 0, 0, 0, -7 -7" transform="rotate(90,306,208)"/><path d="M 299 327v 14h 14v -7a 7 7, 0, 0, 0, -7 -7" transform="rotate(0,306,334)"/><path d="M 299 341v 14h 14v -7a 7 7, 0, 0, 0, -7 -7" transform="rotate(180,306,348)"/><path d="M 299 383v 14h 7a 7 7, 0, 0, 0, 0 -14" transform="rotate(0,306,390)"/><path d="M 299 411v 14h 7a 7 7, 0, 0, 0, 0 -14" transform="rotate(-90,306,418)"/><path d="M 299 425v 14h 14v -7a 7 7, 0, 0, 0, -7 -7" transform="rotate(180,306,432)"/><path d="M 299 453v 14h 14v -7a 7 7, 0, 0, 0, -7 -7" transform="rotate(-90,306,460)"/><path d="M 299 467v 14h 14v -7a 7 7, 0, 0, 0, -7 -7" transform="rotate(90,306,474)"/><path d="M 313 19v 14h 7a 7 7, 0, 0, 0, 0 -14" transform="rotate(0,320,26)"/><path d="M 313 75v 14h 7a 7 7, 0, 0, 0, 0 -14" transform="rotate(180,320,82)"/><circle cx="320" cy="124" r="7" transform="rotate(0,320,124)"/><rect x="313" y="159" width="14" height="14" transform="rotate(0,320,166)"/><rect x="313" y="173" width="14" height="14" transform="rotate(0,320,180)"/><rect x="313" y="187" width="14" height="14" transform="rotate(0,320,194)"/><circle cx="320" cy="236" r="7" transform="rotate(0,320,236)"/><path d="M 313 271v 14h 7a 7 7, 0, 0, 0, 0 -14" transform="rotate(-90,320,278)"/><rect x="313" y="285" width="14" height="14" transform="rotate(0,320,292)"/><path d="M 313 299v 14h 14v -7a 7 7, 0, 0, 0, -7 -7" transform="rotate(180,320,306)"/><rect x="313" y="341" width="14" height="14" transform="rotate(0,320,348)"/><rect x="313" y="355" width="14" height="14" transform="rotate(0,320,362)"/><path d="M 313 369v 14h 14v -7a 7 7, 0, 0, 0, -7 -7" transform="rotate(180,320,376)"/><circle cx="320" cy="404" r="7" transform="rotate(0,320,404)"/><rect x="313" y="425" width="14" height="14" transform="rotate(0,320,432)"/><rect x="313" y="439" width="14" height="14" transform="rotate(0,320,446)"/><rect x="313" y="453" width="14" height="14" transform="rotate(0,320,460)"/><path d="M 327 47v 14h 14v -7a 7 7, 0, 0, 0, -7 -7" transform="rotate(-90,334,54)"/><rect x="327" y="61" width="14" height="14" transform="rotate(0,334,68)"/><rect x="327" y="75" width="14" height="14" transform="rotate(0,334,82)"/><circle cx="334" cy="110" r="7" transform="rotate(0,334,110)"/><path d="M 327 131v 14h 7a 7 7, 0, 0, 0, 0 -14" transform="rotate(180,334,138)"/><path d="M 327 159v 14h 14v -7a 7 7, 0, 0, 0, -7 -7" transform="rotate(0,334,166)"/><rect x="327" y="173" width="14" height="14" transform="rotate(0,334,180)"/><rect x="327" y="187" width="14" height="14" transform="rotate(0,334,194)"/><path d="M 327 215v 14h 7a 7 7, 0, 0, 0, 0 -14" transform="rotate(180,334,222)"/><circle cx="334" cy="264" r="7" transform="rotate(0,334,264)"/><path d="M 327 299v 14h 14v -7a 7 7, 0, 0, 0, -7 -7" transform="rotate(0,334,306)"/><rect x="327" y="313" width="14" height="14" transform="rotate(0,334,320)"/><rect x="327" y="327" width="14" height="14" transform="rotate(0,334,334)"/><rect x="327" y="341" width="14" height="14" transform="rotate(0,334,348)"/><rect x="327" y="355" width="14" height="14" transform="rotate(0,334,362)"/><rect x="327" y="369" width="14" height="14" transform="rotate(0,334,376)"/><path d="M 327 411v 14h 14v -7a 7 7, 0, 0, 0, -7 -7" transform="rotate(-90,334,418)"/><path d="M 327 425v 14h 14v -7a 7 7, 0, 0, 0, -7 -7" transform="rotate(90,334,432)"/><path d="M 327 453v 14h 7a 7 7, 0, 0, 0, 0 -14" transform="rotate(0,334,460)"/><path d="M 341 47v 14h 14v -7a 7 7, 0, 0, 0, -7 -7" transform="rotate(0,348,54)"/><rect x="341" y="61" width="14" height="14" transform="rotate(0,348,68)"/><rect x="341" y="75" width="14" height="14" transform="rotate(0,348,82)"/><path d="M 341 117v 14h 7a 7 7, 0, 0, 0, 0 -14" transform="rotate(-90,348,124)"/><rect x="341" y="131" width="14" height="14" transform="rotate(0,348,138)"/><path d="M 341 145v 14h 14v -7a 7 7, 0, 0, 0, -7 -7" transform="rotate(180,348,152)"/><path d="M 341 173v 14h 14v -7a 7 7, 0, 0, 0, -7 -7" transform="rotate(0,348,180)"/><path d="M 341 187v 14h 14v -7a 7 7, 0, 0, 0, -7 -7" transform="rotate(90,348,194)"/><rect x="341" y="215" width="14" height="14" transform="rotate(0,348,222)"/><circle cx="348" cy="250" r="7" transform="rotate(0,348,250)"/><rect x="341" y="313" width="14" height="14" transform="rotate(0,348,320)"/><path d="M 341 341v 14h 7a 7 7, 0, 0, 0, 0 -14" transform="rotate(0,348,348)"/><rect x="341" y="369" width="14" height="14" transform="rotate(0,348,376)"/><rect x="341" y="383" width="14" height="14" transform="rotate(0,348,390)"/><rect x="341" y="397" width="14" height="14" transform="rotate(0,348,404)"/><rect x="341" y="411" width="14" height="14" transform="rotate(0,348,418)"/><path d="M 341 467v 14h 7a 7 7, 0, 0, 0, 0 -14" transform="rotate(180,348,474)"/><path d="M 355 19v 14h 7a 7 7, 0, 0, 0, 0 -14" transform="rotate(-90,362,26)"/><path d="M 355 33v 14h 7a 7 7, 0, 0, 0, 0 -14" transform="rotate(90,362,40)"/><path d="M 355 75v 14h 14v -7a 7 7, 0, 0, 0, -7 -7" transform="rotate(0,362,82)"/><rect x="355" y="89" width="14" height="14" transform="rotate(0,362,96)"/><path d="M 355 103v 14h 7a 7 7, 0, 0, 0, 0 -14" transform="rotate(90,362,110)"/><rect x="355" y="145" width="14" height="14" transform="rotate(0,362,152)"/><path d="M 355 159v 14h 14v -7a 7 7, 0, 0, 0, -7 -7" transform="rotate(180,362,166)"/><path d="M 355 201v 14h 14v -7a 7 7, 0, 0, 0, -7 -7" transform="rotate(-90,362,208)"/><rect x="355" y="215" width="14" height="14" transform="rotate(0,362,222)"/><path d="M 355 229v 14h 7a 7 7, 0, 0, 0, 0 -14" transform="rotate(90,362,236)"/><path d="M 355 257v 14h 14v -7a 7 7, 0, 0, 0, -7 -7" transform="rotate(-90,362,264)"/><rect x="355" y="271" width="14" height="14" transform="rotate(0,362,278)"/><rect x="355" y="285" width="14" height="14" transform="rotate(0,362,292)"/><rect x="355" y="299" width="14" height="14" transform="rotate(0,362,306)"/><path d="M 355 313v 14h 14v -7a 7 7, 0, 0, 0, -7 -7" transform="rotate(90,362,320)"/><path d="M 355 355v 14h 14v -7a 7 7, 0, 0, 0, -7 -7" transform="rotate(-90,362,362)"/><rect x="355" y="369" width="14" height="14" transform="rotate(0,362,376)"/><rect x="355" y="383" width="14" height="14" transform="rotate(0,362,390)"/><rect x="355" y="397" width="14" height="14" transform="rotate(0,362,404)"/><rect x="355" y="411" width="14" height="14" transform="rotate(0,362,418)"/><path d="M 355 467v 14h 7a 7 7, 0, 0, 0, 0 -14" transform="rotate(0,362,474)"/><path d="M 369 131v 14h 7a 7 7, 0, 0, 0, 0 -14" transform="rotate(-90,376,138)"/><rect x="369" y="145" width="14" height="14" transform="rotate(0,376,152)"/><rect x="369" y="159" width="14" height="14" transform="rotate(0,376,166)"/><rect x="369" y="173" width="14" height="14" transform="rotate(0,376,180)"/><rect x="369" y="187" width="14" height="14" transform="rotate(0,376,194)"/><rect x="369" y="201" width="14" height="14" transform="rotate(0,376,208)"/><rect x="369" y="215" width="14" height="14" transform="rotate(0,376,222)"/><path d="M 369 257v 14h 14v -7a 7 7, 0, 0, 0, -7 -7" transform="rotate(0,376,264)"/><path d="M 369 271v 14h 14v -7a 7 7, 0, 0, 0, -7 -7" transform="rotate(90,376,278)"/><rect x="369" y="355" width="14" height="14" transform="rotate(0,376,362)"/><rect x="369" y="411" width="14" height="14" transform="rotate(0,376,418)"/><circle cx="376" cy="446" r="7" transform="rotate(0,376,446)"/><rect x="383" y="145" width="14" height="14" transform="rotate(0,390,152)"/><path d="M 383 173v 14h 7a 7 7, 0, 0, 0, 0 -14" transform="rotate(0,390,180)"/><rect x="383" y="215" width="14" height="14" transform="rotate(0,390,222)"/><path d="M 383 243v 14h 7a 7 7, 0, 0, 0, 0 -14" transform="rotate(180,390,250)"/><path d="M 383 313v 14h 14v -7a 7 7, 0, 0, 0, -7 -7" transform="rotate(-90,390,320)"/><path d="M 383 327v 14h 7a 7 7, 0, 0, 0, 0 -14" transform="rotate(90,390,334)"/><rect x="383" y="355" width="14" height="14" transform="rotate(0,390,362)"/><circle cx="390" cy="390" r="7" transform="rotate(0,390,390)"/><rect x="383" y="411" width="14" height="14" transform="rotate(0,390,418)"/><path d="M 383 425v 14h 14v -7a 7 7, 0, 0, 0, -7 -7" transform="rotate(180,390,432)"/><path d="M 383 453v 14h 7a 7 7, 0, 0, 0, 0 -14" transform="rotate(180,390,460)"/><rect x="397" y="145" width="14" height="14" transform="rotate(0,404,152)"/><path d="M 397 159v 14h 7a 7 7, 0, 0, 0, 0 -14" transform="rotate(90,404,166)"/><path d="M 397 215v 14h 14v -7a 7 7, 0, 0, 0, -7 -7" transform="rotate(0,404,222)"/><rect x="397" y="229" width="14" height="14" transform="rotate(0,404,236)"/><rect x="397" y="243" width="14" height="14" transform="rotate(0,404,250)"/><circle cx="404" cy="278" r="7" transform="rotate(0,404,278)"/><path d="M 397 299v 14h 14v -7a 7 7, 0, 0, 0, -7 -7" transform="rotate(-90,404,306)"/><path d="M 397 313v 14h 14v -7a 7 7, 0, 0, 0, -7 -7" transform="rotate(90,404,320)"/><path d="M 397 341v 14h 7a 7 7, 0, 0, 0, 0 -14" transform="rotate(-90,404,348)"/><rect x="397" y="355" width="14" height="14" transform="rotate(0,404,362)"/><rect x="397" y="411" width="14" height="14" transform="rotate(0,404,418)"/><rect x="397" y="425" width="14" height="14" transform="rotate(0,404,432)"/><path d="M 397 453v 14h 14v -7a 7 7, 0, 0, 0, -7 -7" transform="rotate(0,404,460)"/><path d="M 397 467v 14h 7a 7 7, 0, 0, 0, 0 -14" transform="rotate(90,404,474)"/><path d="M 411 131v 14h 7a 7 7, 0, 0, 0, 0 -14" transform="rotate(-90,418,138)"/><rect x="411" y="145" width="14" height="14" transform="rotate(0,418,152)"/><path d="M 411 173v 14h 7a 7 7, 0, 0, 0, 0 -14" transform="rotate(-90,418,180)"/><path d="M 411 187v 14h 7a 7 7, 0, 0, 0, 0 -14" transform="rotate(90,418,194)"/><path d="M 411 243v 14h 7a 7 7, 0, 0, 0, 0 -14" transform="rotate(0,418,250)"/><path d="M 411 299v 14h 7a 7 7, 0, 0, 0, 0 -14" transform="rotate(0,418,306)"/><path d="M 411 355v 14h 14v -7a 7 7, 0, 0, 0, -7 -7" transform="rotate(0,418,362)"/><rect x="411" y="369" width="14" height="14" transform="rotate(0,418,376)"/><rect x="411" y="383" width="14" height="14" transform="rotate(0,418,390)"/><rect x="411" y="397" width="14" height="14" transform="rotate(0,418,404)"/><rect x="411" y="411" width="14" height="14" transform="rotate(0,418,418)"/><rect x="411" y="425" width="14" height="14" transform="rotate(0,418,432)"/><rect x="425" y="145" width="14" height="14" transform="rotate(0,432,152)"/><path d="M 425 159v 14h 14v -7a 7 7, 0, 0, 0, -7 -7" transform="rotate(180,432,166)"/><path d="M 425 257v 14h 7a 7 7, 0, 0, 0, 0 -14" transform="rotate(180,432,264)"/><path d="M 425 285v 14h 7a 7 7, 0, 0, 0, 0 -14" transform="rotate(180,432,292)"/><path d="M 425 313v 14h 14v -7a 7 7, 0, 0, 0, -7 -7" transform="rotate(-90,432,320)"/><rect x="425" y="327" width="14" height="14" transform="rotate(0,432,334)"/><path d="M 425 341v 14h 7a 7 7, 0, 0, 0, 0 -14" transform="rotate(90,432,348)"/><rect x="425" y="383" width="14" height="14" transform="rotate(0,432,390)"/><rect x="425" y="411" width="14" height="14" transform="rotate(0,432,418)"/><rect x="425" y="425" width="14" height="14" transform="rotate(0,432,432)"/><rect x="425" y="439" width="14" height="14" transform="rotate(0,432,446)"/><path d="M 425 453v 14h 7a 7 7, 0, 0, 0, 0 -14" transform="rotate(90,432,460)"/><rect x="439" y="145" width="14" height="14" transform="rotate(0,446,152)"/><path d="M 439 159v 14h 14v -7a 7 7, 0, 0, 0, -7 -7" transform="rotate(90,446,166)"/><circle cx="446" cy="194" r="7" transform="rotate(0,446,194)"/><rect x="439" y="257" width="14" height="14" transform="rotate(0,446,264)"/><rect x="439" y="271" width="14" height="14" transform="rotate(0,446,278)"/><rect x="439" y="285" width="14" height="14" transform="rotate(0,446,292)"/><rect x="439" y="313" width="14" height="14" transform="rotate(0,446,320)"/><path d="M 439 369v 14h 14v -7a 7 7, 0, 0, 0, -7 -7" transform="rotate(-90,446,376)"/><rect x="439" y="383" width="14" height="14" transform="rotate(0,446,390)"/><rect x="439" y="397" width="14" height="14" transform="rotate(0,446,404)"/><path d="M 439 411v 14h 14v -7a 7 7, 0, 0, 0, -7 -7" transform="rotate(90,446,418)"/><path d="M 453 131v 14h 7a 7 7, 0, 0, 0, 0 -14" transform="rotate(-90,460,138)"/><path d="M 453 145v 14h 14v -7a 7 7, 0, 0, 0, -7 -7" transform="rotate(90,460,152)"/><circle cx="460" cy="180" r="7" transform="rotate(0,460,180)"/><path d="M 453 215v 14h 7a 7 7, 0, 0, 0, 0 -14" transform="rotate(180,460,222)"/><path d="M 453 257v 14h 7a 7 7, 0, 0, 0, 0 -14" transform="rotate(0,460,264)"/><path d="M 453 285v 14h 14v -7a 7 7, 0, 0, 0, -7 -7" transform="rotate(0,460,292)"/><rect x="453" y="299" width="14" height="14" transform="rotate(0,460,306)"/><rect x="453" y="313" width="14" height="14" transform="rotate(0,460,320)"/><path d="M 453 341v 14h 14v -7a 7 7, 0, 0, 0, -7 -7" transform="rotate(-90,460,348)"/><rect x="453" y="355" width="14" height="14" transform="rotate(0,460,362)"/><rect x="453" y="369" width="14" height="14" transform="rotate(0,460,376)"/><rect x="453" y="383" width="14" height="14" transform="rotate(0,460,390)"/><path d="M 453 397v 14h 14v -7a 7 7, 0, 0, 0, -7 -7" transform="rotate(90,460,404)"/><circle cx="474" cy="166" r="7" transform="rotate(0,474,166)"/><path d="M 467 215v 14h 14v -7a 7 7, 0, 0, 0, -7 -7" transform="rotate(0,474,222)"/><path d="M 467 229v 14h 7a 7 7, 0, 0, 0, 0 -14" transform="rotate(90,474,236)"/><path d="M 467 299v 14h 14v -7a 7 7, 0, 0, 0, -7 -7" transform="rotate(0,474,306)"/><rect x="467" y="313" width="14" height="14" transform="rotate(0,474,320)"/><rect x="467" y="327" width="14" height="14" transform="rotate(0,474,334)"/><rect x="467" y="341" width="14" height="14" transform="rotate(0,474,348)"/><rect x="467" y="355" width="14" height="14" transform="rotate(0,474,362)"/><rect x="467" y="369" width="14" height="14" transform="rotate(0,474,376)"/><path d="M 467 383v 14h 14v -7a 7 7, 0, 0, 0, -7 -7" transform="rotate(90,474,390)"/><circle cx="474" cy="418" r="7" transform="rotate(0,474,418)"/><circle cx="474" cy="474" r="7" transform="rotate(0,474,474)"/></clipPath><clipPath id="clip-path-corners-square-color-0-0"><path clip-rule="evenodd" d="M 19 54v 28a 35 35, 0, 0, 0, 35 35h 28a 35 35, 0, 0, 0, 35 -35v -28a 35 35, 0, 0, 0, -35 -35h -28a 35 35, 0, 0, 0, -35 35M 54 33h 28a 21 21, 0, 0, 1, 21 21v 28a 21 21, 0, 0, 1, -21 21h -28a 21 21, 0, 0, 1, -21 -21v -28a 21 21, 0, 0, 1, 21 -21" transform="rotate(0,68,68)"/></clipPath><clipPath id="clip-path-corners-dot-color-0-0"><rect x="47" y="47" width="42" height="42" transform="rotate(0,68,68)"/></clipPath><clipPath id="clip-path-corners-square-color-1-0"><path clip-rule="evenodd" d="M 383 54v 28a 35 35, 0, 0, 0, 35 35h 28a 35 35, 0, 0, 0, 35 -35v -28a 35 35, 0, 0, 0, -35 -35h -28a 35 35, 0, 0, 0, -35 35M 418 33h 28a 21 21, 0, 0, 1, 21 21v 28a 21 21, 0, 0, 1, -21 21h -28a 21 21, 0, 0, 1, -21 -21v -28a 21 21, 0, 0, 1, 21 -21" transform="rotate(90,432,68)"/></clipPath><clipPath id="clip-path-corners-dot-color-1-0"><rect x="411" y="47" width="42" height="42" transform="rotate(90,432,68)"/></clipPath><clipPath id="clip-path-corners-square-color-0-1"><path clip-rule="evenodd" d="M 19 418v 28a 35 35, 0, 0, 0, 35 35h 28a 35 35, 0, 0, 0, 35 -35v -28a 35 35, 0, 0, 0, -35 -35h -28a 35 35, 0, 0, 0, -35 35M 54 397h 28a 21 21, 0, 0, 1, 21 21v 28a 21 21, 0, 0, 1, -21 21h -28a 21 21, 0, 0, 1, -21 -21v -28a 21 21, 0, 0, 1, 21 -21" transform="rotate(-90,68,432)"/></clipPath><clipPath id="clip-path-corners-dot-color-0-1"><rect x="47" y="411" width="42" height="42" transform="rotate(-90,68,432)"/></clipPath></defs><rect x="0" y="0" height="500" width="500" clip-path="url('#clip-path-background-color')" fill="#fff"/><rect x="0" y="0" height="500" width="500" clip-path="url('#clip-path-dot-color')" fill="#E83223"/><rect x="19" y="19" height="98" width="98" clip-path="url('#clip-path-corners-square-color-0-0')" fill="#E83223"/><rect x="47" y="47" height="42" width="42" clip-path="url('#clip-path-corners-dot-color-0-0')" fill="#E83223"/><rect x="383" y="19" height="98" width="98" clip-path="url('#clip-path-corners-square-color-1-0')" fill="#E83223"/><rect x="411" y="47" height="42" width="42" clip-path="url('#clip-path-corners-dot-color-1-0')" fill="#E83223"/><rect x="19" y="383" height="98" width="98" clip-path="url('#clip-path-corners-square-color-0-1')" fill="#E83223"/><rect x="47" y="411" height="42" width="42" clip-path="url('#clip-path-corners-dot-color-0-1')" fill="#E83223"/></svg>